<?xml version="1.0" encoding="utf-8"?>
<!-- Generator: Adobe Illustrator 17.0.0, SVG Export Plug-In . SVG Version: 6.00 Build 0)  -->
<!DOCTYPE svg PUBLIC "-//W3C//DTD SVG 1.1//EN" "http://www.w3.org/Graphics/SVG/1.1/DTD/svg11.dtd">
<svg version="1.1" id="template" xmlns="http://www.w3.org/2000/svg" xmlns:xlink="http://www.w3.org/1999/xlink" x="0px" y="0px"
	 width="1200px" height="750px" viewBox="0 0 1200 750" enable-background="new 0 0 1200 750" xml:space="preserve">
<g>
	<defs>
		<polygon id="SVGID_1_" points="0,0 0,79.175 0,110.564 0,240.677 0,368.905 0,491.432 0,520.056 0,544.589 0,750 6.838,750 
			68.954,750 185.425,750 236.321,750 253.291,750 272.536,750 280.181,750 349.984,750 404.431,750 452.05,750 469.16,750 
			487.35,750 771.465,750 923.224,750 930.869,750 1017.98,750 1041.301,750 1136.614,750 1200,750 1200,740.706 1200,528.992 
			1200,512.913 1200,487.862 1200,410.981 1200,0 		"/>
	</defs>
	<clipPath id="SVGID_2_">
		<use xlink:href="#SVGID_1_"  overflow="visible"/>
	</clipPath>
	<g clip-path="url(#SVGID_2_)">
		<defs>
			<path id="SVGID_3_" d="M1032.83-29.33c-68.562-21.28-140.297-42.803-211.037-30.576C751.052-47.679,682.556,9.84,683.754,81.619
				c0.288,17.235,4.432,34.879-0.353,51.438c-10.921,37.793-58.086,47.847-93.048,65.88
				c-47.557,24.529-79.377,72.755-95.735,123.704c-16.357,50.949-19.123,105.112-21.763,158.557
				c-3.833,77.606-6.281,160.818,35.198,226.52c26.422,41.851,67.911,71.661,109.624,98.3
				c165.613,105.765,352.073,178.744,545.48,213.495c76.845,13.807,158.97,21.056,230.488-10.261
				c85.302-37.353,140.559-124.844,161.244-215.639c20.685-90.795,11.647-185.512-0.52-277.835
				c-12.339-93.63-27.971-187.548-60.86-276.076c-32.89-88.528-84.177-172.072-157.971-231.008
				c-73.794-58.935-171.763-91-264.613-73.747C1059.057-54.135,1044.698-40.247,1032.83-29.33z"/>
		</defs>
		<clipPath id="SVGID_4_">
			<use xlink:href="#SVGID_3_"  overflow="visible"/>
		</clipPath>
		<linearGradient id="SVGID_5_" gradientUnits="userSpaceOnUse" x1="468.6948" y1="70.0912" x2="649.7803" y2="466.4293">
			<stop  offset="0" style="stop-color:#FF4C7A"/>
			<stop  offset="1" style="stop-color:#DB9891"/>
		</linearGradient>
		<rect x="-51.038" y="-9.139" clip-path="url(#SVGID_4_)" fill="url(#SVGID_5_)" width="1317.616" height="767.242"/>
	</g>
	<linearGradient id="SVGID_6_" gradientUnits="userSpaceOnUse" x1="779.5828" y1="260.4175" x2="931.9092" y2="593.0844">
		<stop  offset="0" style="stop-color:#CAF3FF"/>
		<stop  offset="1" style="stop-color:#3ED0DB"/>
	</linearGradient>
	<path clip-path="url(#SVGID_2_)" fill="url(#SVGID_6_)" d="M1357.538,157.401c-31.43-42.5-98.545-42.747-143.458-14.874
		c-44.913,27.873-72.902,75.66-99.115,121.561c-31.917,55.888-63.833,111.776-95.75,167.663
		c-14.917,26.121-33.266,54.829-62.754,60.773c-36.267,7.311-68.762-23.849-87.876-55.525c-18.327-30.372-31.37-63.672-49.401-94.22
		c-18.031-30.549-42.374-59.197-75.245-72.53c-43.598-17.684-95.075-4.713-133.279,22.746
		c-38.203,27.459-65.322,67.501-89.108,108.093c-67.829,115.754-115.301,243.399-139.591,375.346
		c43.284,54.312,106.588,87.304,173.389,106.302c173.48,49.335,360.178,51.319,534.668,5.682
		c45.052-11.783,90.372-27.247,126.562-56.552c45.623-36.942,72.245-92.112,93.42-146.863
		c56.396-145.82,84.356-302.576,81.854-458.902C1391.426,199.255,1373.502,178.987,1357.538,157.401z"/>
	<linearGradient id="SVGID_7_" gradientUnits="userSpaceOnUse" x1="796.2067" y1="166.465" x2="894.2556" y2="716.241">
		<stop  offset="0" style="stop-color:#CAF3FF"/>
		<stop  offset="1" style="stop-color:#3ED0DB"/>
	</linearGradient>
	<path clip-path="url(#SVGID_2_)" fill="url(#SVGID_7_)" d="M1393.448,258.552c-20.926,32.108-57.12,53.767-95.305,57.033
		c-38.186,3.266-77.532-11.931-103.607-40.019c-44.485-47.918-48.696-125.943-99.598-166.98
		c-44.008-35.478-111.107-29.901-158.774,0.483c-47.667,30.384-79.097,80.54-103.254,131.646
		c-24.158,51.106-42.827,105.094-73.049,152.865c-13.43,21.229-29.498,41.469-50.769,54.833
		c-21.27,13.364-48.512,19.019-71.991,10.09c-51.968-19.762-62.982-97.011-115.059-116.487c-25.592-9.571-55.202-1.727-77.446,14.14
		c-22.244,15.866-38.36,38.775-52.897,61.91c-64.25,102.248-106.323,218.353-122.489,338.025
		c90.646,107.58,220.209,182.005,357.379,213.22c137.171,31.215,280.357,27.137,419.578,6.942
		c70.77-10.266,141.638-24.862,206.794-54.332c65.156-29.47,124.723-74.93,161.242-136.413
		c35.635-59.994,47.299-130.915,55.298-200.234c6.735-58.367,11.329-117.655,2.16-175.689
		C1462.49,351.551,1436.657,298.364,1393.448,258.552z"/>
	<linearGradient id="SVGID_8_" gradientUnits="userSpaceOnUse" x1="910.7343" y1="359.8425" x2="1047.3025" y2="811.5687">
		<stop  offset="0" style="stop-color:#CAF3FF"/>
		<stop  offset="1" style="stop-color:#3ED0DB"/>
	</linearGradient>
	<path clip-path="url(#SVGID_2_)" fill="url(#SVGID_8_)" d="M1385.784,349.786c-29.565-14.395-65.754-4.325-93.259,13.696
		c-27.505,18.021-49.559,43.203-75.886,62.905c-26.327,19.702-60.044,34.073-91.772,25.435
		c-24.317-6.62-43.067-25.409-61.248-42.861c-28.097-26.971-57.999-52.668-92.528-70.685
		c-34.529-18.017-74.276-27.982-112.752-21.946c-70.164,11.007-121.522,70.963-160.13,130.575
		c-64.544,99.656-112.367,210.112-140.874,325.37c39.51,19.027,78.056,43.197,119.237,58.271
		c175.473,64.227,377.821,50.78,543.252-36.102c23.463-12.322,46.564-26.332,64.324-46.003
		c17.144-18.988,28.538-42.39,38.706-65.865C1367.356,579.833,1381.371,461.668,1385.784,349.786z"/>
	<linearGradient id="SVGID_9_" gradientUnits="userSpaceOnUse" x1="1032.2056" y1="501.3378" x2="1173.2266" y2="804.3421">
		<stop  offset="0" style="stop-color:#CAF3FF"/>
		<stop  offset="1" style="stop-color:#3ED0DB"/>
	</linearGradient>
	<path clip-path="url(#SVGID_2_)" fill="url(#SVGID_9_)" d="M1350.829,406.041c-20.213-33.438-66.092-44.885-103.548-33.764
		c-37.456,11.121-67.077,40.323-89.003,72.662s-37.648,68.441-57.697,101.977c-14.096,23.577-34.376,48.166-61.836,48.909
		c-39.933,1.08-65.944-48.251-105.759-51.507c-25.555-2.09-48.316,15.659-65.76,34.451c-43.83,47.216-72.851,107.986-82.022,171.754
		c10.868,18.163,31.421,31.469,51.485,38.209c20.064,6.74,41.444,8.415,62.591,9.307c111.907,4.718,224.655-11.282,330.831-46.948
		c13.594-4.566,48.396,1.842,58.703-8.127c13.625-13.178-2.074-44.145,2.53-62.532
		C1314.281,588.821,1327.892,497.653,1350.829,406.041z"/>
</g>
</svg>
